<?xml version="1.0" encoding="UTF-8"?>
<!DOCTYPE svg PUBLIC "-//W3C//DTD SVG 1.1//EN" "http://www.w3.org/Graphics/SVG/1.1/DTD/svg11.dtd">
<!-- Creator: CorelDRAW 2018 (64 Bit) -->
<svg xmlns="http://www.w3.org/2000/svg" xml:space="preserve" width="1485px" height="190px" version="1.1" shape-rendering="geometricPrecision" text-rendering="geometricPrecision" image-rendering="optimizeQuality" fill-rule="evenodd" clip-rule="evenodd"
viewBox="0 0 9287.78 1190.26"
 xmlns:xlink="http://www.w3.org/1999/xlink">
 <g id="Ebene_x0020_1">
  <metadata id="CorelCorpID_0Corel-Layer"/>
  <path fill="#1A3E5E" fill-rule="nonzero" d="M2919.39 639.72l-258.69 0c-110.86,0 -202.79,-30.85 -275.62,-92.47 -72.83,-61.62 -109.28,-139.06 -109.28,-232.26 0,-93.2 36,-168.72 107.95,-226.51 71.95,-57.79 164.28,-86.71 276.95,-86.71l660.73 0 -119.95 164.57 -540.19 0c-54.09,0 -98.97,14.62 -134.35,43.95 -35.22,29.19 -52.93,66.66 -52.93,112.23 0,44.97 17.71,81.69 52.93,110.01 35.38,28.43 80.23,42.61 134.35,42.61l364.57 0 -106.47 164.58zm558.62 0l114.95 -164.58 230.38 0 -165.46 -230.05 -287.57 394.63 -245.09 0 408.79 -567.17c12.97,-18.87 30.97,-35.38 53.97,-49.54 25.36,-15.34 49.84,-23.01 73.43,-23.01 24.19,0 48.67,7.67 73.44,23.01 21.84,13.56 39.53,30.08 53.09,49.54l403.55 567.17 -713.48 0zm1564.47 0l-287.57 0 -192.88 -160.16 -245.96 0 -115.24 -164.57 440.83 0c33.62,0 61.39,-4.95 83.17,-15.18 27.75,-13.05 41.58,-32.6 41.58,-58.25 0,-50.14 -41.61,-75.22 -124.75,-75.22l-544.92 0 -115.23 -164.57 641.57 0c99.68,0 180.67,18.7 242.43,56.63 69.7,42.8 104.41,104.41 104.41,184.03 0,44.84 -14,85.39 -42.03,121.67 -28.01,36.28 -66.8,64.15 -116.35,83.61l230.94 192.01zm942.41 -473.38l-492.51 0c-54.26,0 -99.25,14.6 -134.94,43.95 -35.69,29.2 -53.53,66.66 -53.53,112.23 0,45.56 17.7,82.43 53.1,110.44 35.38,28.17 80.51,42.18 135.37,42.18l288.47 0 -13.48 -59.28 -171.34 0 0.27 -157.5 367.01 0c-2.18,18.36 -3.27,37.24 -3.27,56.63 0,65.97 13.44,127.54 40.32,184.67l0.21 -0.1c24.55,52.03 59.33,98.33 104.32,138.86l0 1.3 -612.51 0c-110.88,0 -202.77,-30.83 -275.62,-92.47 -72.85,-61.63 -109.27,-139.06 -109.27,-232.26 0,-93.2 35.98,-168.71 107.94,-226.51 71.96,-57.8 164.29,-86.71 276.95,-86.71l606.57 0c-53.45,47.49 -91.46,102.35 -114.06,164.57zm1142.91 148.65c0,93.2 -36.43,170.63 -109.27,232.26 -72.85,61.65 -164.72,92.47 -275.62,92.47l-192.01 0c-111.48,0 -203.65,-30.82 -276.5,-92.47 -72.85,-61.63 -109.27,-139.06 -109.27,-232.26 0,-93.2 36.13,-168.7 108.39,-226.51 72.26,-57.81 164.72,-86.71 277.38,-86.71l192.01 0c112.66,0 204.99,28.9 276.95,86.71 71.96,57.81 107.94,133.31 107.94,226.51zm-384.6 -148.65l-191.71 0c-54.71,0 -99.83,14.6 -135.22,43.95 -35.25,29.2 -52.95,66.66 -52.95,112.23 0,45.56 17.7,82.43 52.95,110.44 35.39,28.17 80.51,42.18 135.22,42.18l191.71 0c54.72,0 99.84,-14.01 135.23,-42.18 35.25,-28.01 52.95,-64.88 52.95,-110.44 0,-45.57 -17.84,-83.03 -53.39,-112.23 -35.68,-29.35 -80.66,-43.95 -134.79,-43.95zm-4352.35 1020.4l314.12 0 0 -35.14 -271.07 0 0 -111.15 258.77 0 0 -35.14 -258.77 0 0 -101.48 269.32 0 0 -35.16 -312.37 0 0 318.07zm809.65 -79.95c0,64.59 32.52,83.47 113.35,83.47l146.74 0c80.83,0 113.34,-18.88 113.34,-83.47l0 -238.12 -43.06 0 0 237.68c0,30.75 -10.54,48.77 -68.97,48.77l-149.37 0c-58.43,0 -68.97,-18.02 -68.97,-48.77l0 -237.68 -43.06 0 0 238.12zm885.22 79.95l43.05 0 0 -125.65 210 0c39.1,0 63.27,6.17 63.27,55.8l0 69.85 40.41 0 0 -81.27c0,-28.99 -10.54,-51.84 -54.47,-59.75l0 -0.88c32.95,-3.07 58.43,-15.37 58.43,-60.18l0 -25.92c0,-59.75 -14.5,-90.07 -106.32,-90.07l-254.37 0 0 318.07zm43.05 -160.79l0 -122.12 195.94 0c63.27,0 78.64,11.41 78.64,47l0 28.99c0,33.39 -20.21,46.13 -68.1,46.13l-206.48 0zm1181.76 61.51c0,55.35 -33.39,67.66 -74.69,67.66l-174.41 0c-41.29,0 -74.69,-12.31 -74.69,-67.66l0 -119.5c0,-55.36 33.4,-67.65 74.69,-67.65l174.41 0c41.3,0 74.69,12.29 74.69,67.65l0 119.5zm-366.83 -16.26c0,80.4 27.23,119.06 113.35,119.06l183.2 0c86.1,0 113.34,-38.66 113.34,-119.06l0 -86.98c0,-80.39 -27.24,-119.06 -113.34,-119.06l-183.2 0c-86.12,0 -113.35,38.67 -113.35,119.06l0 86.98zm915.96 115.54l43.05 0 0 -125.2 210.44 0c93.58,0 99.29,-35.59 99.29,-106.32 0,-74.25 -32.95,-86.55 -90.94,-86.55l-261.84 0 0 318.07zm309.73 -205.6c0,32.95 -20.21,45.25 -54.49,45.25l-212.19 0 0 -122.56 208.68 0c37.34,0 58,9.21 58,47l0 30.31zm532.86 205.6l314.13 0 0 -35.14 -271.06 0 0 -111.15 258.75 0 0 -35.14 -258.75 0 0 -101.48 269.29 0 0 -35.16 -312.36 0 0 318.07z"/>
  <path fill="#D7B46A" d="M9012.47 546.8l-162.92 -0.66 133.62 99.5 -48.76 157.28c12.11,-4.63 83.75,-59.08 100.45,-70.99 9.77,-6.98 22.59,-18.57 34.82,-23.8 34.26,18.98 101.67,78.61 133.6,94.76l-50.05 -158.15c15.91,-10.37 129.24,-89.88 134.55,-98.57l-160.9 0c-10.79,-2.69 -11.78,-19.16 -17.71,-37.51l-39.95 -121.32 -39.79 120.56c-2.25,7.08 -4.19,13.97 -6.31,20.6 -3.9,12.28 -1.95,11.7 -10.65,18.3z"/>
  <path fill="#D7B46A" d="M7612.69 545.94l-162.56 0.09 134.88 98.66 -49.82 157.75c23.82,-14.34 44.19,-30.38 66.9,-46.56 20.65,-14.71 46.9,-37.49 67.8,-47.95 26.65,12.58 100.08,76.07 133.86,94.99l-49.23 -157.27 135.13 -98.84 -162.55 -0.93c-9.86,-2.76 -11.65,-19.66 -16.45,-35.38 -8.49,-27.72 -30.76,-105.69 -40.76,-121.24 -9.83,14.32 -36.59,108.92 -46.21,139.25 -4.04,12.74 -1.16,11.47 -10.99,17.43z"/>
  <path fill="#D7B46A" d="M8315.79 546.48l-164.67 0.13c18.65,21.29 113.3,80.21 131.85,98.48 -3.15,39.79 -39.58,112.36 -47.93,157.6 30.38,-15.16 110.85,-85.22 134.74,-94.6 20.68,11.39 115.49,86.26 133.45,94.83l-50.28 -158.35c33.95,-21 80.63,-58.02 116.36,-82.51l17.18 -15.29 -164.85 -0.36 -51.13 -157.65c-2.92,3.21 -1.89,1.47 -4.61,6.56l-10.36 30.37c-4.12,12.95 -8.87,27.37 -13.16,40.83 -7.2,22.6 -17.06,60.33 -26.59,79.96z"/>
  <path fill="#D7B46A" d="M865.66 546.48l-164.67 0.13c18.65,21.29 113.3,80.21 131.85,98.48 -3.16,39.79 -39.58,112.36 -47.93,157.6 30.38,-15.16 110.85,-85.22 134.75,-94.6 20.68,11.39 115.47,86.26 133.44,94.83l-50.28 -158.35c33.95,-21 80.64,-58.02 116.36,-82.51l17.18 -15.29 -164.85 -0.36 -51.13 -157.65c-2.92,3.21 -1.9,1.47 -4.62,6.56l-10.35 30.37c-4.12,12.95 -8.87,27.37 -13.16,40.83 -7.2,22.6 -17.05,60.33 -26.59,79.96zm-703.09 -0.54l-162.58 0.09 134.89 98.66 -49.82 157.75c23.83,-14.34 44.19,-30.38 66.9,-46.56 20.65,-14.71 46.89,-37.49 67.81,-47.95 26.64,12.58 100.07,76.07 133.85,94.99l-49.22 -157.27 135.12 -98.84 -162.55 -0.93c-9.86,-2.76 -11.64,-19.66 -16.45,-35.38 -8.49,-27.72 -30.76,-105.69 -40.75,-121.24 -9.83,14.32 -36.6,108.92 -46.22,139.25 -4.04,12.74 -1.16,11.47 -10.98,17.43zm1399.77 0.86l-162.92 -0.66 133.62 99.5 -48.76 157.28c12.11,-4.63 83.74,-59.08 100.45,-70.99 9.76,-6.98 22.6,-18.57 34.81,-23.8 34.27,18.98 101.67,78.61 133.61,94.76l-50.05 -158.15c15.91,-10.37 129.24,-89.88 134.54,-98.57l-160.89 0c-10.79,-2.69 -11.79,-19.16 -17.71,-37.51l-39.95 -121.32 -39.79 120.56c-2.25,7.08 -4.19,13.97 -6.31,20.6 -3.9,12.28 -1.95,11.7 -10.65,18.3z"/>
 </g>
</svg>
