<?xml version="1.0" encoding="UTF-8"?>
<!DOCTYPE svg PUBLIC "-//W3C//DTD SVG 1.1//EN" "http://www.w3.org/Graphics/SVG/1.1/DTD/svg11.dtd">
<!-- Creator: CorelDRAW 2018 (64 Bit) -->
<svg xmlns="http://www.w3.org/2000/svg" xml:space="preserve" width="1058px" height="746px" version="1.1" shape-rendering="geometricPrecision" text-rendering="geometricPrecision" image-rendering="optimizeQuality" fill-rule="evenodd" clip-rule="evenodd"
viewBox="0 0 4887.7 3446.55"
 xmlns:xlink="http://www.w3.org/1999/xlink">
 <g id="Ebene_x0020_1">
  <metadata id="CorelCorpID_0Corel-Layer"/>
  <path fill="#1A3E5E" fill-rule="nonzero" d="M648.33 1804.96l-260.6 0c-111.68,0 -204.29,-31.07 -277.65,-93.15 -73.36,-62.07 -110.08,-140.07 -110.08,-233.97 0,-93.88 36.27,-169.96 108.74,-228.17 72.48,-58.22 165.49,-87.35 278.99,-87.35l665.58 0 -120.82 165.78 -544.17 0c-54.49,0 -99.69,14.73 -135.34,44.27 -35.47,29.41 -53.32,67.15 -53.32,113.05 0,45.31 17.85,82.3 53.32,110.83 35.65,28.64 80.82,42.92 135.34,42.92l367.26 0 -107.25 165.79zm562.72 0l115.8 -165.79 232.07 0 -166.68 -231.73 -289.68 397.52 -246.89 0 411.79 -571.34c13.07,-19.01 31.2,-35.64 54.37,-49.91 25.55,-15.45 50.21,-23.17 73.98,-23.17 24.36,0 49.02,7.72 73.97,23.17 22,13.66 39.82,30.3 53.49,49.91l406.51 571.34 -718.73 0zm1575.98 0l-289.68 0 -194.31 -161.33 -247.77 0 -116.08 -165.79 444.07 0c33.87,0 61.85,-4.98 83.79,-15.29 27.94,-13.15 41.89,-32.84 41.89,-58.68 0,-50.51 -41.93,-75.77 -125.68,-75.77l-548.92 0 -116.09 -165.78 646.29 0c100.42,0 182.01,18.83 244.22,57.04 70.22,43.12 105.18,105.18 105.18,185.4 0,45.16 -14.11,86.01 -42.34,122.56 -28.22,36.54 -67.29,64.61 -117.21,84.22l232.64 193.42zm949.34 -476.86l-496.13 0c-54.65,0 -99.97,14.71 -135.93,44.27 -35.95,29.42 -53.92,67.15 -53.92,113.05 0,45.91 17.83,83.05 53.48,111.27 35.65,28.37 81.11,42.48 136.37,42.48l290.6 0 -13.58 -59.71 -172.61 0 0.27 -158.66 369.72 0c-2.2,18.49 -3.3,37.51 -3.3,57.04 0,66.46 13.54,128.48 40.63,186.04l0.2 -0.1c24.73,52.41 59.77,99.05 105.09,139.88l0 1.3 -617.02 0c-111.7,0 -204.26,-31.05 -277.64,-93.15 -73.39,-62.09 -110.08,-140.07 -110.08,-233.97 0,-93.88 36.25,-169.94 108.73,-228.17 72.49,-58.23 165.5,-87.35 278.99,-87.35l611.04 0c-53.84,47.84 -92.14,103.1 -114.91,165.78zm1151.33 149.74c0,93.9 -36.7,171.88 -110.08,233.97 -73.39,62.11 -165.94,93.15 -277.65,93.15l-193.41 0c-112.31,0 -205.15,-31.04 -278.54,-93.15 -73.38,-62.09 -110.08,-140.07 -110.08,-233.97 0,-93.88 36.4,-169.94 109.19,-228.17 72.79,-58.23 165.93,-87.35 279.43,-87.35l193.41 0c113.5,0 206.49,29.12 278.99,87.35 72.49,58.23 108.74,134.29 108.74,228.17zm-387.43 -149.74l-193.12 0c-55.12,0 -100.57,14.71 -136.22,44.27 -35.51,29.42 -53.34,67.15 -53.34,113.05 0,45.91 17.83,83.05 53.34,111.27 35.65,28.37 81.1,42.48 136.22,42.48l193.12 0c55.11,0 100.57,-14.11 136.22,-42.48 35.51,-28.22 53.33,-65.36 53.33,-111.27 0,-45.9 -17.97,-83.63 -53.78,-113.05 -35.94,-29.56 -81.25,-44.27 -135.77,-44.27z"/>
  <path fill="#1A3E5E" fill-rule="nonzero" d="M115.9 2356.01l316.43 0 0 -35.4 -273.06 0 0 -111.97 260.67 0 0 -35.4 -260.67 0 0 -102.23 271.29 0 0 -35.41 -314.66 0 0 320.41zm815.6 -80.54c0,65.06 32.76,84.08 114.18,84.08l147.82 0c81.43,0 114.18,-19.02 114.18,-84.08l0 -239.87 -43.37 0 0 239.43c0,30.97 -10.62,49.12 -69.48,49.12l-150.47 0c-58.86,0 -69.48,-18.15 -69.48,-49.12l0 -239.43 -43.38 0 0 239.87zm891.74 80.54l43.36 0 0 -126.57 211.55 0c39.38,0 63.72,6.2 63.72,56.21l0 70.36 40.72 0 0 -81.87c0,-29.21 -10.62,-52.22 -54.88,-60.19l0 -0.88c33.19,-3.1 58.86,-15.49 58.86,-60.63l0 -26.11c0,-60.19 -14.6,-90.73 -107.1,-90.73l-256.23 0 0 320.41zm43.36 -161.97l0 -123.03 197.38 0c63.73,0 79.23,11.5 79.23,47.35l0 29.21c0,33.63 -20.37,46.47 -68.61,46.47l-208 0zm1190.46 61.96c0,55.76 -33.64,68.15 -75.24,68.15l-175.7 0c-41.59,0 -75.23,-12.39 -75.23,-68.15l0 -120.38c0,-55.77 33.64,-68.15 75.23,-68.15l175.7 0c41.6,0 75.24,12.38 75.24,68.15l0 120.38zm-369.54 -16.38c0,80.99 27.43,119.93 114.18,119.93l184.55 0c86.74,0 114.18,-38.94 114.18,-119.93l0 -87.62c0,-80.99 -27.44,-119.94 -114.18,-119.94l-184.55 0c-86.75,0 -114.18,38.95 -114.18,119.94l0 87.62zm922.7 116.39l43.37 0 0 -126.12 211.98 0c94.27,0 100.03,-35.85 100.03,-107.11 0,-74.79 -33.19,-87.18 -91.61,-87.18l-263.77 0 0 320.41zm312.01 -207.11c0,33.19 -20.36,45.58 -54.88,45.58l-213.76 0 0 -123.47 210.22 0c37.62,0 58.42,9.29 58.42,47.35l0 30.54zm536.79 207.11l316.43 0 0 -35.4 -273.06 0 0 -111.97 260.67 0 0 -35.4 -260.67 0 0 -102.23 271.29 0 0 -35.41 -314.66 0 0 320.41z"/>
  <path fill="#D7B46A" d="M2387.06 3122.45l-208.81 0.04c7.37,12.05 150.1,113.66 166.9,121.27 -4.09,42.72 -50.87,149.23 -60.93,201.5 35.07,-16.32 146.41,-111.69 169.53,-119.04 39.99,22.15 125.89,97.04 167.97,120.33l-63.09 -200.38c28.74,-16.82 60.34,-41.68 85.93,-60.31 20.53,-14.94 70.02,-46.95 83.43,-62.5l-209.85 -1.03 -63.76 -199.04c-15.51,18.79 -54.11,164.22 -67.32,199.16zm-878.67 -234.38l-210.59 1c11.82,13.18 155.47,116.05 168.91,122.03l-62.14 199.22c26.27,-8.95 128.41,-94.73 167.89,-117.67 33.69,13.52 133.74,102.23 169.59,118.89l-62.81 -200.88c21.31,-8.53 142.93,-99.02 170.91,-119.63l-210.84 -2.32c-9.95,-30.79 -21.33,-67.28 -31.5,-98.29 -6.9,-21.04 -23.08,-80.26 -33.82,-98.74 -0.36,-0.61 -1.15,-1.84 -1.81,-2.71l-63.79 199.1zm1758.01 0.31l-210.44 0.65c32.11,28.56 153.64,105.64 168.62,127.3l-62.64 196.46 124.25 -88.58c13.84,-9.95 30.94,-24.59 44.62,-31.65 38.27,17.88 136.11,103.91 169.74,118.88 -9.72,-47.48 -59.82,-163.92 -59.77,-199.35 35.15,-27.92 151,-105.29 166.7,-122.6l-208.87 -0.76c-24.17,-41.36 -44.5,-170.2 -68.4,-198.77l-63.81 198.42z"/>
  <path fill="#D7B46A" d="M3263.02 435.49l-205.15 -0.82 168.26 125.28 -61.41 198.04c15.26,-5.82 105.45,-74.38 126.49,-89.39 12.3,-8.78 28.45,-23.38 43.84,-29.96 43.14,23.9 128.03,98.98 168.24,119.32l-63.03 -199.15c20.04,-13.05 162.75,-113.17 169.43,-124.11l-202.61 0c-13.58,-3.38 -14.84,-24.13 -22.29,-47.24l-50.31 -152.75 -50.11 151.8c-2.82,8.92 -5.27,17.59 -7.94,25.94 -4.91,15.47 -2.45,14.73 -13.41,23.04zm-1762.59 -0.79l-204.71 0.12 169.84 124.22 -62.72 198.65c30,-18.06 55.63,-38.26 84.24,-58.63 25.99,-18.52 59.04,-47.21 85.38,-60.38 33.54,15.84 126,95.79 168.54,119.61l-61.99 -198.02 170.16 -124.46 -204.69 -1.17c-12.41,-3.49 -14.65,-24.77 -20.71,-44.56 -10.69,-34.91 -38.73,-133.09 -51.31,-152.67 -12.39,18.04 -46.09,137.16 -58.2,175.35 -5.09,16.04 -1.46,14.45 -13.83,21.94zm885.33 -236.09l-207.35 0.15c23.48,26.81 142.67,101 166.02,124 -3.97,50.11 -49.83,141.48 -60.35,198.45 38.25,-19.09 139.58,-107.3 169.67,-119.12 26.04,14.35 145.41,108.63 168.03,119.41l-63.31 -199.39c42.76,-26.45 101.54,-73.05 146.52,-103.9l21.64 -19.25 -207.58 -0.45 -64.38 -198.51c-3.68,4.04 -2.39,1.86 -5.81,8.26l-13.04 38.24c-5.19,16.31 -11.17,34.46 -16.58,51.41 -9.06,28.47 -21.47,75.97 -33.48,100.7z"/>
 </g>
</svg>
